<svg xmlns="http://www.w3.org/2000/svg" xmlns:xlink="http://www.w3.org/1999/xlink" width="174.26" height="178.434" viewBox="0 0 174.26 178.434"><defs><style>.a{fill:#103f80;}.b{fill:#080e64;opacity:0.918;}.c{fill:url(#c);}.d{fill:#24b0e5;}.e{fill:rgba(9,242,233,0.51);stroke:rgba(255,255,255,0.62);}.f{fill:url(#d);}.g{stroke:#e3f1ff;stroke-width:3px;fill:url(#e);}.h,.i{fill:#fff;}.i{opacity:0.502;}.j{filter:url(#a);}</style><filter id="a" x="0" y="70.208" width="174.26" height="108.226" filterUnits="userSpaceOnUse"><feOffset dy="9" input="SourceAlpha"/><feGaussianBlur stdDeviation="3" result="b"/><feFlood flood-opacity="0.82"/><feComposite operator="in" in2="b"/><feComposite in="SourceGraphic"/></filter><linearGradient id="c" x1="0.121" y1="0.397" x2="0.5" y2="1" gradientUnits="objectBoundingBox"><stop offset="0" stop-color="#458fea"/><stop offset="1" stop-color="#0f71d3"/></linearGradient><linearGradient id="d" y1="0.5" x2="1" y2="0.5" gradientUnits="objectBoundingBox"><stop offset="0" stop-color="#1f599c"/><stop offset="1" stop-color="#0029b0"/></linearGradient><linearGradient id="e" y1="0.5" x2="1" y2="0.5" gradientUnits="objectBoundingBox"><stop offset="0" stop-color="#87d9ed"/><stop offset="1" stop-color="#2e77eb"/></linearGradient></defs><g transform="translate(-1107.77 -225.003)"><g transform="translate(-12.865 -28.659)"><g transform="translate(1129.636 255.164)"><g transform="translate(0 0)"><g class="j" transform="matrix(1, 0, 0, 1, -9, -1.5)"><path class="a" d="M4243.018,3855.418c-.181,2.079-1.783,4.229-4.733,5.933l-62.709,36.205c-5.752,3.317-14.445,3.682-19.424.806l-66.024-38.119c-2.115-1.224-3.217-2.832-3.348-4.529v-.549a1.037,1.037,0,0,1,.009-.211c.185-2.076,1.784-4.229,4.736-5.926L4110,3838.361l4.128-2.383,40.1-23.155c5.753-3.32,14.444-3.681,19.419-.806l42.126,24.319,4.4,2.541,19.5,11.257C4242.107,3851.534,4243.2,3853.448,4243.018,3855.418Z" transform="translate(-4077.78 -3739.87)"/></g><path class="b" d="M4191.852,3840.57c-.122,1.4-1.2,2.843-3.184,3.989l-42.172,24.349c-3.869,2.231-9.714,2.476-13.062.542l-44.4-25.636a3.99,3.99,0,0,1-2.251-3.046v-.37a.743.743,0,0,1,.006-.142c.125-1.4,1.2-2.844,3.185-3.985l12.427-7.174,2.776-1.6,26.969-15.573c3.869-2.233,9.715-2.475,13.06-.542l28.332,16.355,2.961,1.709,13.114,7.571C4191.239,3837.958,4191.974,3839.244,4191.852,3840.57Z" transform="translate(-4061.191 -3726.598)"/><path class="c" d="M4229.876,3726.044a5.127,5.127,0,0,0,0-.555v-14.737h-143.1v15.4c.006,1.668,1.009,3.257,3.067,4.445l60.473,34.913c4.557,2.632,12.521,2.3,17.787-.737l57.435-33.161c2.662-1.538,4.122-3.473,4.325-5.351h.011Z" transform="translate(-4080.205 -3638.887)"/><path class="d" d="M4229.875,3851.6c-.167,1.9-1.634,3.873-4.336,5.434L4168.1,3890.2c-5.267,3.039-13.229,3.372-17.789.739l-60.47-34.912a5.434,5.434,0,0,1-3.066-4.148v-.5a.971.971,0,0,1,.009-.193c.168-1.9,1.633-3.874,4.337-5.427l16.923-9.77,3.782-2.183,36.728-21.207c5.269-3.042,13.229-3.372,17.786-.738l38.583,22.273,4.033,2.327,17.858,10.311C4229.04,3848.046,4230.041,3849.8,4229.875,3851.6Z" transform="translate(-4080.91 -3779.09)"/><path class="e" d="M4229.876,3726.044a5.127,5.127,0,0,0,0-.555v-14.737h-143.1v15.4c.006,1.668,1.009,3.257,3.067,4.445l60.473,34.913c4.557,2.632,12.521,2.3,17.787-.737l57.435-33.161c2.662-1.538,4.122-3.473,4.325-5.351h.011Z" transform="translate(-4080.206 -3653.661)"/><path class="f" d="M4229.876,3726.044a5.127,5.127,0,0,0,0-.555v-14.737h-143.1v15.4c.006,1.668,1.009,3.257,3.067,4.445l60.473,34.913c4.557,2.632,12.521,2.3,17.787-.737l57.435-33.161c2.662-1.538,4.122-3.473,4.325-5.351h.011Z" transform="translate(-4080.205 -3669.648)"/><path class="g" d="M4229.875,3698.782c-.167,1.9-1.634,3.872-4.336,5.432l-57.435,33.16c-5.267,3.038-13.229,3.372-17.789.738l-60.47-34.912a5.432,5.432,0,0,1-3.066-4.149v-.5a.955.955,0,0,1,.009-.192c.168-1.905,1.633-3.875,4.337-5.428l16.923-9.772,3.782-2.182,36.728-21.207c5.269-3.042,13.229-3.37,17.786-.739l38.583,22.274,4.033,2.328,17.858,10.311C4229.04,3695.223,4230.041,3696.976,4229.875,3698.782Z" transform="translate(-4080.204 -3657.254)"/></g></g></g><g transform="translate(1152.71 243.128)"><path class="h" d="M66.3,21.541,35.74,42.995a5.267,5.267,0,0,1-1.381.681,6.205,6.205,0,0,1-1.541.295,5.6,5.6,0,0,1-1.511-.1,3.9,3.9,0,0,1-1.294-.514l-8.679-5.579L2.541,25.692a2.114,2.114,0,0,1-.756-.793,1.614,1.614,0,0,1-.17-.945,2.145,2.145,0,0,1,.4-.98,3.615,3.615,0,0,1,.952-.9L33.172,1.884a5.151,5.151,0,0,1,1.3-.614A6.2,6.2,0,0,1,35.919,1a5.6,5.6,0,0,1,1.423.078,3.833,3.833,0,0,1,1.225.443L66.4,17.917a2.44,2.44,0,0,1,.846.787,1.683,1.683,0,0,1,.266.945,1.949,1.949,0,0,1-.313.985A3.206,3.206,0,0,1,66.3,21.541ZM23.956,27.884a2.44,2.44,0,0,0-.61.578,1.423,1.423,0,0,0-.265.621.993.993,0,0,0,.091.59,1.228,1.228,0,0,0,.458.486,2.15,2.15,0,0,0,.757.282,3.35,3.35,0,0,0,.9.036,3.983,3.983,0,0,0,.936-.2,3.563,3.563,0,0,0,.857-.426l12.766-8.771,1.452.887a2.043,2.043,0,0,0,.515.217,2.946,2.946,0,0,0,.611.1,3.672,3.672,0,0,0,.666-.023,3.917,3.917,0,0,0,.68-.146q.133-.041.259-.091t.246-.106q.119-.057.232-.122t.217-.137a2.693,2.693,0,0,0,.288-.228,2.2,2.2,0,0,0,.233-.247,1.724,1.724,0,0,0,.174-.261,1.33,1.33,0,0,0,.11-.268l1.362-4.86a1.044,1.044,0,0,0,.039-.35.93.93,0,0,0-.081-.325,1.056,1.056,0,0,0-.2-.289,1.429,1.429,0,0,0-.307-.242,1.99,1.99,0,0,0-.4-.18,2.634,2.634,0,0,0-.462-.106,3.289,3.289,0,0,0-.509-.03,3.822,3.822,0,0,0-.54.048L37.045,15.51a3.953,3.953,0,0,0-.794.213,3.661,3.661,0,0,0-.365.164,3.205,3.205,0,0,0-.332.2,2.336,2.336,0,0,0-.593.561,1.341,1.341,0,0,0-.251.6.951.951,0,0,0,.1.571,1.225,1.225,0,0,0,.461.469l1.436.877Z" transform="translate(16.568)"/><path class="i" d="M3.707,20.889,8.075,18l9.51-6.289,9.374-6.2,4.217-2.789A6.533,6.533,0,0,1,32.8,1.961a7.667,7.667,0,0,1,1.79-.339,6.8,6.8,0,0,1,1.748.1,4.586,4.586,0,0,1,1.495.552l1.724.926,3.815,2.049,3.845,2.066,1.758.944c.443.268-1.089,1.559-3.239,3.425a54.927,54.927,0,0,0-7,6.919c-2.059,2.6-3.366,5.344-2.511,7.749.862,2.422,3.918,4.5,10.607,5.762l-1.954,1.343-4.321,2.968-4.35,2.988-1.987,1.365a6.667,6.667,0,0,1-1.718.84,7.68,7.68,0,0,1-1.9.363,6.78,6.78,0,0,1-1.85-.129,4.649,4.649,0,0,1-1.57-.634l-1.006-.661L23.528,38.81l-3.745-2.462-4.293-2.822-4.562-3L6.95,27.91,4.141,26.063l-1.065-.7a2.528,2.528,0,0,1-.908-.983,1.982,1.982,0,0,1-.181-1.169A2.727,2.727,0,0,1,2.508,22,4.63,4.63,0,0,1,3.707,20.889Z" transform="translate(0 2.243)"/></g></g></svg>