<svg xmlns="http://www.w3.org/2000/svg" xmlns:xlink="http://www.w3.org/1999/xlink" width="178.025" height="182.262" viewBox="0 0 178.025 182.262"><defs><style>.a{fill:#103f80;}.b{fill:#080e64;opacity:0.918;}.c{fill:url(#c);}.d{fill:#24b0e5;}.e{fill:rgba(9,242,233,0.51);stroke:rgba(255,255,255,0.62);}.f{fill:url(#d);}.g{stroke:#e3f1ff;stroke-width:3px;fill:url(#e);}.h,.i{fill:#fff;}.h{opacity:0.502;}.j{filter:url(#a);}</style><filter id="a" x="0" y="71.863" width="178.025" height="110.4" filterUnits="userSpaceOnUse"><feOffset dy="9" input="SourceAlpha"/><feGaussianBlur stdDeviation="3" result="b"/><feFlood flood-opacity="0.82"/><feComposite operator="in" in2="b"/><feComposite in="SourceGraphic"/></filter><linearGradient id="c" x1="0.121" y1="0.397" x2="0.5" y2="1" gradientUnits="objectBoundingBox"><stop offset="0" stop-color="#458fea"/><stop offset="1" stop-color="#0f71d3"/></linearGradient><linearGradient id="d" y1="0.5" x2="1" y2="0.5" gradientUnits="objectBoundingBox"><stop offset="0" stop-color="#1f599c"/><stop offset="1" stop-color="#0029b0"/></linearGradient><linearGradient id="e" y1="0.5" x2="1" y2="0.5" gradientUnits="objectBoundingBox"><stop offset="0" stop-color="#87d9ed"/><stop offset="1" stop-color="#2e77eb"/></linearGradient></defs><g transform="translate(-991.588 -565.852)"><g transform="translate(1000.587 567.354)"><g transform="translate(0.001 0)"><g class="j" transform="matrix(1, 0, 0, 1, -9, -1.5)"><path class="a" d="M4246.782,3856.51c-.186,2.129-1.827,4.331-4.849,6.076l-64.22,37.077c-5.89,3.4-14.792,3.77-19.892.826l-67.615-39.037c-2.166-1.253-3.294-2.9-3.428-4.638v-.562a1.048,1.048,0,0,1,.009-.216c.189-2.126,1.827-4.331,4.85-6.069l18.923-10.925,4.228-2.44,41.068-23.713c5.891-3.4,14.792-3.769,19.887-.825l43.142,24.906,4.51,2.6,19.969,11.528C4245.849,3852.532,4246.968,3854.493,4246.782,3856.51Z" transform="translate(-4077.78 -3738.21)"/></g><path class="b" d="M4194.384,3841.305c-.126,1.43-1.229,2.911-3.261,4.085l-43.188,24.935c-3.962,2.285-9.949,2.536-13.378.556l-45.472-26.253a4.088,4.088,0,0,1-2.306-3.119v-.379a.744.744,0,0,1,.006-.146c.127-1.429,1.228-2.912,3.262-4.082l12.726-7.347,2.843-1.641,27.62-15.947c3.962-2.287,9.947-2.535,13.375-.555l29.013,16.75,3.032,1.75,13.43,7.753C4193.755,3838.629,4194.508,3839.948,4194.384,3841.305Z" transform="translate(-4060.574 -3724.586)"/><path class="c" d="M4233.323,3726.412a5.007,5.007,0,0,0,0-.568v-15.092H4086.778v15.768c.006,1.707,1.032,3.335,3.141,4.551l61.929,35.754c4.668,2.7,12.824,2.357,18.215-.755l58.819-33.959c2.727-1.576,4.222-3.557,4.43-5.48h.011Z" transform="translate(-4080.047 -3637.156)"/><path class="d" d="M4233.322,3852.6c-.171,1.95-1.674,3.966-4.441,5.565l-58.817,33.958c-5.395,3.11-13.547,3.454-18.218.756l-61.927-35.753c-1.983-1.147-3.017-2.657-3.14-4.248v-.515a.942.942,0,0,1,.009-.2c.173-1.947,1.672-3.967,4.442-5.559l17.331-10.006,3.872-2.235,37.613-21.717c5.4-3.115,13.547-3.453,18.214-.756l39.512,22.81,4.131,2.384,18.289,10.559C4232.467,3848.961,4233.491,3850.757,4233.322,3852.6Z" transform="translate(-4080.768 -3778.343)"/><path class="e" d="M4233.323,3726.412a5.007,5.007,0,0,0,0-.568v-15.092H4086.778v15.768c.006,1.707,1.032,3.335,3.141,4.551l61.929,35.754c4.668,2.7,12.824,2.357,18.215-.755l58.819-33.959c2.727-1.576,4.222-3.557,4.43-5.48h.011Z" transform="translate(-4080.048 -3652.286)"/><path class="f" d="M4233.323,3726.412a5.007,5.007,0,0,0,0-.568v-15.092H4086.778v15.768c.006,1.707,1.032,3.335,3.141,4.551l61.929,35.754c4.668,2.7,12.824,2.357,18.215-.755l58.819-33.959c2.727-1.576,4.222-3.557,4.43-5.48h.011Z" transform="translate(-4080.046 -3668.658)"/><path class="g" d="M4233.322,3699.782c-.171,1.95-1.674,3.966-4.441,5.563l-58.817,33.958c-5.395,3.111-13.547,3.454-18.218.756l-61.927-35.752c-1.983-1.147-3.017-2.656-3.14-4.249v-.515a.923.923,0,0,1,.009-.2c.173-1.952,1.672-3.969,4.442-5.559l17.331-10.008,3.872-2.234,37.613-21.717c5.4-3.116,13.547-3.453,18.214-.758l39.512,22.81,4.131,2.384,18.289,10.56C4232.467,3696.138,4233.491,3697.933,4233.322,3699.782Z" transform="translate(-4080.045 -3657.254)"/></g></g><path class="h" d="M34.425,0H38a3,3,0,0,1,3,3V18a3,3,0,0,1-3,3H3a3,3,0,0,1-3-3V14.208C0,12.551,32.63,18.418,34.425,0Z" transform="translate(1066.135 609.236)"/><g transform="translate(1060.041 592.804)"><path class="i" d="M3.982,1.052,0,6.476l.92.376L2.62,4.6,3.8,2.977,5.988,0a.4.4,0,0,0-.076.01L5.821.031,5.73.052a.406.406,0,0,1-.076.01,4.631,4.631,0,0,0-.531.163,3.186,3.186,0,0,0-.461.216A2.289,2.289,0,0,0,4.28.714a1.828,1.828,0,0,0-.3.338Z" transform="translate(11.238 13.454)"/><path class="i" d="M38.931,7.315H31.318L21.709.36a1.838,1.838,0,0,0-.544-.27,2.082,2.082,0,0,0-1.211,0,1.838,1.838,0,0,0-.544.27L9.8,7.315H2.187a2.176,2.176,0,0,0-.645.1,1.836,1.836,0,0,0-.532.262,1.331,1.331,0,0,0-.365.388A.962.962,0,0,0,.5,8.536l-.475,20.9a.994.994,0,0,0,.123.5,1.3,1.3,0,0,0,.356.408,1.77,1.77,0,0,0,.534.276,2.139,2.139,0,0,0,.658.1h37.72a2.139,2.139,0,0,0,.658-.1,1.77,1.77,0,0,0,.534-.276,1.3,1.3,0,0,0,.356-.408.993.993,0,0,0,.123-.5l-.475-20.9a.961.961,0,0,0-.142-.474,1.331,1.331,0,0,0-.365-.388,1.836,1.836,0,0,0-.532-.262A2.176,2.176,0,0,0,38.931,7.315ZM20.559,2.887,26.6,7.315H14.518l6.041-4.428ZM33.7,23.2l-2.07,2.916a1.468,1.468,0,0,1-.282.287,1.493,1.493,0,0,1-.346.2,1.923,1.923,0,0,1-.411.114,2.866,2.866,0,0,1-.475.037c-.063,0-.132,0-.2-.011s-.146-.017-.22-.029-.148-.026-.22-.041-.14-.031-.2-.047L20.812,23.14a2.15,2.15,0,0,1-.286-.154,1.69,1.69,0,0,1-.23-.178,1.54,1.54,0,0,1-.183-.2,1.667,1.667,0,0,1-.143-.225.41.41,0,0,1-.049-.1.69.69,0,0,1-.025-.116c-.005-.039-.008-.079-.009-.116s0-.073,0-.1L15.94,20.369l-1.7,2.266a1.324,1.324,0,0,1-.417.39,1.821,1.821,0,0,1-.566.218,2.288,2.288,0,0,1-.644.04,2.363,2.363,0,0,1-.65-.143L8.113,21.563a1.541,1.541,0,0,1-.515-.31,1.084,1.084,0,0,1-.284-.421.973.973,0,0,1-.047-.48,1.171,1.171,0,0,1,.2-.485l4.845-6.475a5.145,5.145,0,0,1,1.544-1.356,7.027,7.027,0,0,1,2.05-.787,8.082,8.082,0,0,1,2.294-.163,7.573,7.573,0,0,1,2.278.517,2.133,2.133,0,0,1,.282.15,1.668,1.668,0,0,1,.228.173,1.512,1.512,0,0,1,.181.2,1.629,1.629,0,0,1,.142.22,1.607,1.607,0,0,1,.046.24,1.415,1.415,0,0,1,.007.246,1.062,1.062,0,0,1-.04.234.747.747,0,0,1-.095.206L18.8,16.617l4.018,1.622a1.586,1.586,0,0,1,.405-.178,2.016,2.016,0,0,1,.453-.072,2.717,2.717,0,0,1,.484.021,3.588,3.588,0,0,1,.5.1l8.425,3.449a2.187,2.187,0,0,1,.287.153,1.724,1.724,0,0,1,.233.177,1.573,1.573,0,0,1,.186.2,1.7,1.7,0,0,1,.147.225.562.562,0,0,1,.071.236.6.6,0,0,1-.032.23.9.9,0,0,1-.111.218,1.453,1.453,0,0,1-.167.2Z"/><path class="i" d="M0,.718.523,0,6.006,2.23l-.516.722Z" transform="translate(23.999 20.867)"/></g></g></svg>