<svg xmlns="http://www.w3.org/2000/svg" xmlns:xlink="http://www.w3.org/1999/xlink" width="179.537" height="183.8" viewBox="0 0 179.537 183.8"><defs><style>.a{fill:#103f80;}.b{fill:#080e64;opacity:0.918;}.c{fill:url(#c);}.d{fill:#24b0e5;}.e{fill:rgba(9,242,233,0.51);stroke:rgba(255,255,255,0.62);}.f{fill:url(#d);}.g{stroke:#e3f1ff;stroke-width:3px;fill:url(#e);}.h,.i{fill:#fff;}.h{opacity:0.4;}.j{filter:url(#a);}</style><filter id="a" x="0" y="72.527" width="179.537" height="111.272" filterUnits="userSpaceOnUse"><feOffset dy="9" input="SourceAlpha"/><feGaussianBlur stdDeviation="3" result="b"/><feFlood flood-opacity="0.82"/><feComposite operator="in" in2="b"/><feComposite in="SourceGraphic"/></filter><linearGradient id="c" x1="0.121" y1="0.397" x2="0.5" y2="1" gradientUnits="objectBoundingBox"><stop offset="0" stop-color="#458fea"/><stop offset="1" stop-color="#0f71d3"/></linearGradient><linearGradient id="d" x1="0.5" y1="0.39" x2="0.5" y2="0.974" gradientUnits="objectBoundingBox"><stop offset="0" stop-color="#1f599c"/><stop offset="1" stop-color="#0029b0" stop-opacity="0.255"/></linearGradient><linearGradient id="e" y1="0.5" x2="1" y2="0.5" gradientUnits="objectBoundingBox"><stop offset="0" stop-color="#f7e05f"/><stop offset="1" stop-color="#eb6f2e"/></linearGradient></defs><g transform="translate(-513.539 -294.215)"><g transform="translate(522.539 295.718)"><g transform="translate(0 0)"><g class="j" transform="matrix(1, 0, 0, 1, -9, -1.5)"><path class="a" d="M4248.294,3856.949c-.188,2.148-1.845,4.372-4.9,6.133l-64.826,37.428c-5.945,3.429-14.932,3.806-20.079.833l-68.254-39.406c-2.186-1.264-3.326-2.928-3.461-4.682v-.567a1.068,1.068,0,0,1,.01-.218c.191-2.147,1.843-4.373,4.9-6.126l19.1-11.028,4.268-2.463,41.457-23.937c5.946-3.433,14.931-3.805,20.075-.833l43.549,25.14,4.552,2.626,20.158,11.638C4247.351,3852.933,4248.481,3854.912,4248.294,3856.949Z" transform="translate(-4077.78 -3737.55)"/></g><path class="b" d="M4195.4,3841.6c-.126,1.445-1.24,2.939-3.292,4.124l-43.6,25.171c-4,2.306-10.042,2.56-13.5.56l-45.9-26.5a4.125,4.125,0,0,1-2.327-3.149v-.381a.742.742,0,0,1,.006-.146c.128-1.444,1.24-2.941,3.292-4.12l12.847-7.417,2.87-1.657,27.88-16.1c4-2.308,10.042-2.558,13.5-.559l29.288,16.907,3.061,1.767,13.558,7.827C4194.766,3838.9,4195.525,3840.229,4195.4,3841.6Z" transform="translate(-4060.327 -3723.779)"/><path class="c" d="M4234.706,3726.56a4.769,4.769,0,0,0,0-.573v-15.235H4086.778v15.917c.007,1.724,1.042,3.367,3.17,4.595l62.514,36.092c4.711,2.721,12.944,2.379,18.387-.762l59.375-34.281c2.752-1.59,4.26-3.59,4.471-5.532h.01Z" transform="translate(-4079.983 -3636.461)"/><path class="d" d="M4234.706,3853.006c-.172,1.968-1.689,4-4.482,5.617L4170.85,3892.9c-5.445,3.14-13.675,3.486-18.391.764l-62.511-36.091c-2-1.158-3.046-2.681-3.17-4.288v-.52a.936.936,0,0,1,.009-.2c.174-1.965,1.688-4,4.484-5.61l17.495-10.1,3.909-2.256,37.968-21.923c5.446-3.145,13.676-3.485,18.387-.763l39.885,23.026,4.169,2.405L4231.546,3848C4233.843,3849.328,4234.876,3851.141,4234.706,3853.006Z" transform="translate(-4080.712 -3778.044)"/><path class="e" d="M4234.706,3726.56a4.769,4.769,0,0,0,0-.573v-15.235H4086.778v15.917c.007,1.724,1.042,3.367,3.17,4.595l62.514,36.092c4.711,2.721,12.944,2.379,18.387-.762l59.375-34.281c2.752-1.59,4.26-3.59,4.471-5.532h.01Z" transform="translate(-4079.984 -3651.733)"/><path class="f" d="M4234.706,3726.56a4.769,4.769,0,0,0,0-.573v-15.235H4086.778v15.917c.007,1.724,1.042,3.367,3.17,4.595l62.514,36.092c4.711,2.721,12.944,2.379,18.387-.762l59.375-34.281c2.752-1.59,4.26-3.59,4.471-5.532h.01Z" transform="translate(-4079.983 -3668.26)"/><path class="g" d="M4234.706,3700.184c-.172,1.968-1.689,4-4.482,5.616l-59.373,34.28c-5.445,3.14-13.675,3.485-18.391.763l-62.511-36.09c-2-1.158-3.046-2.681-3.17-4.289v-.519a.914.914,0,0,1,.009-.2c.174-1.969,1.688-4.005,4.484-5.611l17.495-10.1,3.909-2.255,37.968-21.922c5.446-3.145,13.676-3.485,18.387-.764l39.885,23.025,4.169,2.406,18.462,10.66C4233.843,3696.5,4234.876,3698.317,4234.706,3700.184Z" transform="translate(-4079.982 -3657.254)"/></g></g><g transform="translate(573.303 309.993)"><path class="h" d="M52.8,14.743,31.5,24.451l-1.518-.018-3.5-1.408L18.833,19.94,11.22,16.873,7.775,15.485a7.418,7.418,0,0,0-2.342,2.555A5.508,5.508,0,0,0,4.779,21a6.243,6.243,0,0,0,1.033,3,9.482,9.482,0,0,0,2.712,2.673l3.047,2.048,6.751,4.538,6.818,4.584,3.122,2.1a6.181,6.181,0,0,0,1.736.8,7.2,7.2,0,0,0,1.919.278,6.607,6.607,0,0,0,1.867-.244A4.842,4.842,0,0,0,35.368,40l3-2.258,6.53-4.913,6.431-4.839,2.891-2.175a6.783,6.783,0,0,0,2.16-2.587,5.348,5.348,0,0,0,.439-2.948,6.574,6.574,0,0,0-1.214-2.946,10.145,10.145,0,0,0-2.8-2.592Z" transform="translate(1.019 6.516)"/><path class="i" d="M27.975,39.2,8.439,26.156a9.344,9.344,0,0,1-2.684-2.627,6.087,6.087,0,0,1-1.019-2.945,5.367,5.367,0,0,1,.651-2.9,7.307,7.307,0,0,1,2.324-2.5L26.49,2.169a4.715,4.715,0,0,1,1.5-.666,6.608,6.608,0,0,1,1.758-.2,7.2,7.2,0,0,1,1.8.258,6.047,6.047,0,0,1,1.633.715L52.34,14.5a11.37,11.37,0,0,1,1.547,1.177A8.922,8.922,0,0,1,55.081,17a7.059,7.059,0,0,1,.817,1.432,5.9,5.9,0,0,1,.414,1.512,5.194,5.194,0,0,1-.461,2.945,6,6,0,0,1-.862,1.318,7.605,7.605,0,0,1-1.264,1.169L35.017,39.27a4.815,4.815,0,0,1-1.57.748,6.619,6.619,0,0,1-1.851.236,7.21,7.21,0,0,1-1.9-.275A6.145,6.145,0,0,1,27.975,39.2ZM25.634,14.3h0l-3.686-.372,2.1,9.844c1.379-.31,2.788-.559,4.19-.759s2.794-.348,4.142-.459,2.649-.183,3.868-.228,2.355-.062,3.37-.063c1.1,0,2.121.016,3.035.042s1.72.062,2.39.1,1.2.072,1.571.1.571.046.578.047l-.08-1.125a65.065,65.065,0,0,0-6.58-1.235c-2.234-.314-4.437-.538-6.384-.7s-3.64-.255-4.853-.31-1.947-.071-1.975-.071L25.634,14.3Z"/></g></g></svg>