<svg xmlns="http://www.w3.org/2000/svg" xmlns:xlink="http://www.w3.org/1999/xlink" width="186.656" height="191.041" viewBox="0 0 186.656 191.041"><defs><style>.a{fill:#103f80;}.b{fill:#080e64;opacity:0.918;}.c{fill:url(#c);}.d{fill:#24b0e5;}.e{fill:rgba(9,242,233,0.51);stroke:rgba(255,255,255,0.62);}.f{fill:url(#d);}.g{stroke:#e3f1ff;stroke-width:3px;fill:url(#e);}.h,.i{fill:#fff;}.i{opacity:0.502;}.j{filter:url(#a);}</style><filter id="a" x="0" y="75.658" width="186.656" height="115.383" filterUnits="userSpaceOnUse"><feOffset dy="9" input="SourceAlpha"/><feGaussianBlur stdDeviation="3" result="b"/><feFlood flood-opacity="0.82"/><feComposite operator="in" in2="b"/><feComposite in="SourceGraphic"/></filter><linearGradient id="c" x1="0.121" y1="0.397" x2="0.5" y2="1" gradientUnits="objectBoundingBox"><stop offset="0" stop-color="#458fea"/><stop offset="1" stop-color="#0f71d3"/></linearGradient><linearGradient id="d" y1="0.5" x2="1" y2="0.5" gradientUnits="objectBoundingBox"><stop offset="0" stop-color="#1f599c"/><stop offset="1" stop-color="#0029b0"/></linearGradient><linearGradient id="e" y1="0.5" x2="1" y2="0.5" gradientUnits="objectBoundingBox"><stop offset="0" stop-color="#87d9ed"/><stop offset="1" stop-color="#2e77eb"/></linearGradient></defs><g transform="translate(-606.67 -551.861)"><g transform="translate(615.67 553.363)"><g transform="translate(0 0)"><g class="j" transform="matrix(1, 0, 0, 1, -9, -1.5)"><path class="a" d="M4255.413,3859.015c-.2,2.243-1.926,4.564-5.111,6.4l-67.683,39.077c-6.208,3.58-15.59,3.974-20.965.87l-71.261-41.143c-2.282-1.32-3.472-3.057-3.613-4.889v-.592a1.1,1.1,0,0,1,.01-.228c.2-2.241,1.924-4.564,5.112-6.4l19.943-11.514,4.455-2.571,43.284-24.992c6.209-3.584,15.59-3.973,20.959-.87l45.469,26.249,4.753,2.742,21.047,12.15C4254.429,3854.823,4255.607,3856.888,4255.413,3859.015Z" transform="translate(-4077.78 -3734.42)"/></g><path class="b" d="M4200.188,3842.99c-.133,1.507-1.295,3.069-3.437,4.305l-45.519,26.281c-4.174,2.407-10.484,2.672-14.1.585l-47.925-27.67a4.3,4.3,0,0,1-2.43-3.287v-.4a.781.781,0,0,1,.007-.153c.133-1.507,1.294-3.07,3.438-4.3l13.413-7.744,3-1.73,29.108-16.807c4.175-2.41,10.484-2.672,14.095-.584l30.579,17.652,3.2,1.844,14.155,8.172C4199.525,3840.169,4200.319,3841.559,4200.188,3842.99Z" transform="translate(-4059.161 -3719.975)"/><path class="c" d="M4241.226,3727.257a4.709,4.709,0,0,0,0-.6v-15.906H4086.778v16.618c.006,1.8,1.088,3.515,3.31,4.8l65.269,37.683c4.92,2.841,13.516,2.484,19.2-.8l61.992-35.791c2.873-1.661,4.448-3.75,4.668-5.776h.01Z" transform="translate(-4079.684 -3633.186)"/><path class="d" d="M4241.225,3854.9c-.18,2.054-1.763,4.18-4.68,5.864l-61.989,35.79c-5.686,3.279-14.28,3.64-19.2.8l-65.266-37.682c-2.091-1.209-3.18-2.8-3.31-4.477v-.542a.98.98,0,0,1,.01-.208c.182-2.052,1.762-4.181,4.681-5.859l18.266-10.545,4.081-2.355,39.642-22.889c5.687-3.283,14.278-3.639,19.2-.8l41.643,24.041,4.354,2.511,19.276,11.129C4240.325,3851.058,4241.4,3852.951,4241.225,3854.9Z" transform="translate(-4080.445 -3776.632)"/><path class="e" d="M4241.226,3727.257a4.709,4.709,0,0,0,0-.6v-15.906H4086.778v16.618c.006,1.8,1.088,3.515,3.31,4.8l65.269,37.683c4.92,2.841,13.516,2.484,19.2-.8l61.992-35.791c2.873-1.661,4.448-3.75,4.668-5.776h.01Z" transform="translate(-4079.685 -3649.132)"/><path class="f" d="M4241.226,3727.257a4.709,4.709,0,0,0,0-.6v-15.906H4086.778v16.618c.006,1.8,1.088,3.515,3.31,4.8l65.269,37.683c4.92,2.841,13.516,2.484,19.2-.8l61.992-35.791c2.873-1.661,4.448-3.75,4.668-5.776h.01Z" transform="translate(-4079.683 -3666.387)"/><path class="g" d="M4241.225,3702.076c-.18,2.055-1.763,4.179-4.68,5.863l-61.989,35.791c-5.686,3.279-14.28,3.64-19.2.8l-65.266-37.681c-2.091-1.209-3.18-2.8-3.31-4.478v-.542a.971.971,0,0,1,.01-.208c.182-2.056,1.762-4.182,4.681-5.859l18.266-10.546,4.081-2.355,39.642-22.888c5.687-3.284,14.278-3.639,19.2-.8l41.643,24.04,4.354,2.513,19.276,11.13C4240.325,3698.235,4241.4,3700.127,4241.225,3702.076Z" transform="translate(-4079.683 -3657.254)"/></g></g><g transform="translate(656.031 576.093)"><path class="h" d="M70.118,23.234l-4.826,3.4-10.751,7.58L43.6,41.928l-5.035,3.55q-.157.11-.326.21t-.349.187q-.18.088-.372.164t-.393.14q-.194.062-.393.11t-.4.085q-.2.036-.41.059t-.417.033q-.208.01-.414.006t-.407-.021q-.2-.017-.4-.048t-.388-.074q-.2-.045-.384-.1t-.361-.13q-.175-.071-.337-.155t-.312-.18l-.74-.477-2.021-1.3L26.75,42.052l-3.663-2.36-6.935-4.467L9.564,30.982l-4.9-3.156L2.744,26.589a3,3,0,0,1-.261-.188,2.56,2.56,0,0,1-.226-.205,2.233,2.233,0,0,1-.189-.221,2.01,2.01,0,0,1-.152-.237A1.865,1.865,0,0,1,1.8,25.5a1.742,1.742,0,0,1-.073-.248A1.712,1.712,0,0,1,1.7,25a1.774,1.774,0,0,1,0-.26,1.906,1.906,0,0,1,.042-.262,2.032,2.032,0,0,1,.079-.259,2.25,2.25,0,0,1,.115-.256,2.561,2.561,0,0,1,.151-.251,2.924,2.924,0,0,1,.193-.252q.105-.123.227-.24t.261-.227q.139-.11.293-.214l4.968-3.322,10.8-7.22,10.62-7.1,4.77-3.189q.147-.1.306-.187t.328-.168q.169-.079.348-.147t.368-.126q.182-.056.368-.1t.377-.078q.19-.033.384-.055t.389-.033q.2-.01.388-.009t.381.015q.189.013.373.038t.364.062q.185.038.361.087t.34.11q.165.061.318.133t.295.155l4.58,2.7L54.731,10.37l10.484,6.174L70.062,19.4q.151.089.285.187a3.008,3.008,0,0,1,.251.2,2.608,2.608,0,0,1,.216.22,2.314,2.314,0,0,1,.18.236,2.089,2.089,0,0,1,.138.24,1.882,1.882,0,0,1,.1.248,1.772,1.772,0,0,1,.062.255,1.75,1.75,0,0,1,.023.261,1.8,1.8,0,0,1-.015.264,1.862,1.862,0,0,1-.053.261,2.018,2.018,0,0,1-.092.258,2.268,2.268,0,0,1-.13.254,2.562,2.562,0,0,1-.173.255,2.907,2.907,0,0,1-.21.244,3.361,3.361,0,0,1-.246.231Q70.268,23.128,70.118,23.234ZM25.939,17.2q-.554.374-1.053.774t-.941.822q-.442.422-.827.867a11.109,11.109,0,0,0-.709.91,9.636,9.636,0,0,0-.6.974,8.335,8.335,0,0,0-.45.992,7.441,7.441,0,0,0-.3,1.007,6.935,6.935,0,0,0-.148,1.018,6.594,6.594,0,0,0,.006,1.013,6.4,6.4,0,0,0,.162.99,6.586,6.586,0,0,0,.317.963,7.168,7.168,0,0,0,.472.933,7.991,7.991,0,0,0,.6.86,8.9,8.9,0,0,0,.726.806,10.169,10.169,0,0,0,.854.749,11.814,11.814,0,0,0,.979.69q.52.329,1.087.618t1.178.536q.611.247,1.265.452t1.347.365q.718.166,1.46.281T32.866,34q.763.062,1.545.072t1.579-.033q.8-.043,1.583-.137t1.558-.238q.772-.144,1.527-.337t1.49-.436q.71-.234,1.385-.509t1.312-.587q.637-.313,1.234-.664t1.151-.737q.554-.387,1.051-.8t.933-.848q.437-.436.813-.894a10.892,10.892,0,0,0,.69-.936,9.6,9.6,0,0,0,.576-1,8.46,8.46,0,0,0,.427-1.017A7.7,7.7,0,0,0,52,23.868a7.309,7.309,0,0,0,.127-1.041,6.54,6.54,0,0,0-.053-1.012,6.427,6.427,0,0,0-.208-.983,6.7,6.7,0,0,0-.361-.951,7.361,7.361,0,0,0-.513-.915,8.251,8.251,0,0,0-.631-.838,9.224,9.224,0,0,0-.754-.781,10.546,10.546,0,0,0-.874-.722q-.466-.346-.991-.66t-1.091-.589q-.566-.274-1.173-.507t-1.251-.425q-.644-.191-1.325-.341-.7-.155-1.431-.26T40,13.684q-.744-.055-1.5-.061t-1.533.038q-.772.044-1.536.137t-1.515.233q-.752.141-1.49.329t-1.46.424q-.7.227-1.36.493t-1.293.568q-.629.3-1.222.642T25.939,17.2ZM44.351,28.657q-.293.2-.6.395t-.638.368q-.327.177-.669.341t-.7.312q-.464.194-.944.359t-.975.3q-.494.137-1,.246t-1.024.188l.685-15.142q.526.035,1.034.1t1,.154q.489.091.957.209t.914.264q.434.142.841.308t.785.355q.378.189.726.4t.665.446q.316.234.6.486a7.012,7.012,0,0,1,.521.522,6.292,6.292,0,0,1,.446.555,5.77,5.77,0,0,1,.368.588,5.374,5.374,0,0,1,.292.63,5.088,5.088,0,0,1,.317,1.324,5.238,5.238,0,0,1,.024.69,5.123,5.123,0,0,1-.069.693,5.409,5.409,0,0,1-.164.69,5.917,5.917,0,0,1-.259.685,6.662,6.662,0,0,1-.353.677,7.531,7.531,0,0,1-.426.638q-.233.314-.5.616t-.582.591q-.31.289-.658.565l-.145.113-.149.112-.151.111ZM34.159,31.551h0q-.536-.038-1.054-.106t-1.014-.164q-.5-.1-.971-.222t-.924-.278q-.438-.149-.848-.323t-.787-.37q-.378-.2-.724-.416t-.658-.461q-.312-.241-.586-.5a6.827,6.827,0,0,1-.508-.535,6.14,6.14,0,0,1-.429-.567,5.653,5.653,0,0,1-.349-.6,5.27,5.27,0,0,1-.271-.637,5.063,5.063,0,0,1-.271-1.333,5.294,5.294,0,0,1,0-.691,5.194,5.194,0,0,1,.092-.691,5.513,5.513,0,0,1,.185-.685,6.052,6.052,0,0,1,.277-.677,6.822,6.822,0,0,1,.369-.666q.2-.318.438-.626t.514-.6q.275-.3.587-.578t.659-.551l.145-.11.148-.109.15-.107.153-.105q.291-.2.6-.383t.631-.357q.323-.172.661-.33t.688-.3q.456-.187.927-.348t.955-.294q.484-.133.98-.239t1-.183L34.159,31.55Z" transform="translate(15.869 0)"/><path class="i" d="M3.706,20.889,8.075,18l9.51-6.289,9.374-6.2,4.217-2.789A6.533,6.533,0,0,1,32.8,1.961a7.667,7.667,0,0,1,1.79-.339,6.8,6.8,0,0,1,1.748.1,4.586,4.586,0,0,1,1.495.552l1.724.926,3.815,2.049,3.845,2.066,1.758.944c.443.268-1.089,1.559-3.239,3.425a54.927,54.927,0,0,0-7,6.919c-2.059,2.6-3.366,5.344-2.511,7.749.862,2.422,3.918,4.5,10.607,5.762l-1.954,1.343-4.321,2.968-4.35,2.988-1.987,1.365a6.667,6.667,0,0,1-1.718.84,7.68,7.68,0,0,1-1.9.363,6.78,6.78,0,0,1-1.85-.129,4.649,4.649,0,0,1-1.57-.634l-1.006-.661L23.528,38.81l-3.745-2.462-4.293-2.822-4.562-3L6.95,27.91,4.141,26.063l-1.065-.7a2.528,2.528,0,0,1-.908-.983,1.982,1.982,0,0,1-.181-1.169A2.727,2.727,0,0,1,2.507,22,4.63,4.63,0,0,1,3.706,20.889Z" transform="translate(0 2.329)"/></g></g></svg>