<svg xmlns="http://www.w3.org/2000/svg" xmlns:xlink="http://www.w3.org/1999/xlink" width="178.025" height="182.262" viewBox="0 0 178.025 182.262"><defs><style>.a{fill:#103f80;}.b{fill:#080e64;opacity:0.918;}.c{fill:url(#c);}.d{fill:#24b0e5;}.e{fill:rgba(9,242,233,0.51);stroke:rgba(255,255,255,0.62);}.f{fill:url(#d);}.g{stroke:#e3f1ff;stroke-width:3px;fill:url(#e);}.h{opacity:0.504;}.i{fill:#fff;}.j{filter:url(#a);}</style><filter id="a" x="0" y="71.863" width="178.025" height="110.4" filterUnits="userSpaceOnUse"><feOffset dy="9" input="SourceAlpha"/><feGaussianBlur stdDeviation="3" result="b"/><feFlood flood-opacity="0.82"/><feComposite operator="in" in2="b"/><feComposite in="SourceGraphic"/></filter><linearGradient id="c" x1="0.121" y1="0.397" x2="0.5" y2="1" gradientUnits="objectBoundingBox"><stop offset="0" stop-color="#458fea"/><stop offset="1" stop-color="#0f71d3"/></linearGradient><linearGradient id="d" y1="0.5" x2="1" y2="0.5" gradientUnits="objectBoundingBox"><stop offset="0" stop-color="#1f599c"/><stop offset="1" stop-color="#0029b0"/></linearGradient><linearGradient id="e" y1="0.5" x2="1" y2="0.5" gradientUnits="objectBoundingBox"><stop offset="0" stop-color="#87d9ed"/><stop offset="1" stop-color="#2e77eb"/></linearGradient></defs><g transform="translate(-991.588 -565.851)"><g transform="translate(1000.587 567.354)"><g transform="translate(0.001 0)"><g class="j" transform="matrix(1, 0, 0, 1, -9, -1.5)"><path class="a" d="M4246.782,3856.51c-.186,2.129-1.827,4.331-4.849,6.076l-64.22,37.077c-5.89,3.4-14.792,3.77-19.892.826l-67.615-39.037c-2.166-1.253-3.294-2.9-3.428-4.638v-.562a1.048,1.048,0,0,1,.009-.216c.189-2.126,1.827-4.331,4.85-6.069l18.923-10.925,4.228-2.44,41.068-23.713c5.891-3.4,14.792-3.769,19.887-.825l43.142,24.906,4.51,2.6,19.969,11.528C4245.849,3852.532,4246.968,3854.493,4246.782,3856.51Z" transform="translate(-4077.78 -3738.21)"/></g><path class="b" d="M4194.384,3841.305c-.126,1.43-1.229,2.911-3.261,4.085l-43.188,24.935c-3.962,2.285-9.949,2.536-13.378.556l-45.472-26.253a4.088,4.088,0,0,1-2.306-3.119v-.379a.744.744,0,0,1,.006-.146c.127-1.429,1.228-2.912,3.262-4.082l12.726-7.347,2.843-1.641,27.62-15.947c3.962-2.287,9.947-2.535,13.375-.555l29.013,16.75,3.032,1.75,13.43,7.753C4193.755,3838.629,4194.508,3839.948,4194.384,3841.305Z" transform="translate(-4060.574 -3724.586)"/><path class="c" d="M4233.323,3726.412a5.007,5.007,0,0,0,0-.568v-15.092H4086.778v15.768c.006,1.707,1.032,3.335,3.141,4.551l61.929,35.754c4.668,2.7,12.824,2.357,18.215-.755l58.819-33.959c2.727-1.576,4.222-3.557,4.43-5.48h.011Z" transform="translate(-4080.047 -3637.156)"/><path class="d" d="M4233.322,3852.6c-.171,1.95-1.674,3.966-4.441,5.565l-58.817,33.958c-5.395,3.11-13.547,3.454-18.218.756l-61.927-35.753c-1.983-1.147-3.017-2.657-3.14-4.248v-.515a.942.942,0,0,1,.009-.2c.173-1.947,1.672-3.967,4.442-5.559l17.331-10.006,3.872-2.235,37.613-21.717c5.4-3.115,13.547-3.453,18.214-.756l39.512,22.81,4.131,2.384,18.289,10.559C4232.467,3848.961,4233.491,3850.757,4233.322,3852.6Z" transform="translate(-4080.768 -3778.343)"/><path class="e" d="M4233.323,3726.412a5.007,5.007,0,0,0,0-.568v-15.092H4086.778v15.768c.006,1.707,1.032,3.335,3.141,4.551l61.929,35.754c4.668,2.7,12.824,2.357,18.215-.755l58.819-33.959c2.727-1.576,4.222-3.557,4.43-5.48h.011Z" transform="translate(-4080.048 -3652.286)"/><path class="f" d="M4233.323,3726.412a5.007,5.007,0,0,0,0-.568v-15.092H4086.778v15.768c.006,1.707,1.032,3.335,3.141,4.551l61.929,35.754c4.668,2.7,12.824,2.357,18.215-.755l58.819-33.959c2.727-1.576,4.222-3.557,4.43-5.48h.011Z" transform="translate(-4080.046 -3668.658)"/><path class="g" d="M4233.322,3699.782c-.171,1.95-1.674,3.966-4.441,5.563l-58.817,33.958c-5.395,3.111-13.547,3.454-18.218.756l-61.927-35.752c-1.983-1.147-3.017-2.656-3.14-4.249v-.515a.923.923,0,0,1,.009-.2c.173-1.952,1.672-3.969,4.442-5.559l17.331-10.008,3.872-2.234,37.613-21.717c5.4-3.116,13.547-3.453,18.214-.758l39.512,22.81,4.131,2.384,18.289,10.56C4232.467,3696.138,4233.491,3697.933,4233.322,3699.782Z" transform="translate(-4080.045 -3657.254)"/></g></g><g class="h" transform="translate(1055.407 592.534)"><path class="i" d="M.6.068l3.272,1.8L.628,6.038a1.883,1.883,0,0,0-.5,1.427,2.439,2.439,0,0,0,.615,1.3A5.69,5.69,0,0,0,1.985,9.831a7.741,7.741,0,0,0,1.382.713,8.192,8.192,0,0,0,1.429.39,16.566,16.566,0,0,0,1.683.219c.592.049,1.207.077,1.83.092s1.252.015,1.87.01L14.686,6.18l3.335,1.263L12.315,0,.6.068Z" transform="translate(0 11.125)"/><path class="i" d="M.315,0,7.349,9.455a4.55,4.55,0,0,0,1.313.817,8.483,8.483,0,0,0,1.7.5,15.548,15.548,0,0,0,1.964.239c.687.043,1.4.054,2.116.041h7.722l0-8.991L7.692,1.989A15.8,15.8,0,0,1,5.9,1.963a13.046,13.046,0,0,1-1.916-.279A10.194,10.194,0,0,1,2.078,1.06,8.145,8.145,0,0,1,.315,0Z" transform="translate(0.484 21.448)"/><path class="i" d="M18.537,3.855l-3.815,1.12L10.957,1.157A3.383,3.383,0,0,0,9.406.225,6.092,6.092,0,0,0,7.5,0,9.709,9.709,0,0,0,5.608.254,8.955,8.955,0,0,0,4.086.742,6.318,6.318,0,0,0,2.94,1.4a9.549,9.549,0,0,0-1.055.883c-.337.323-.661.67-.97,1.027S.308,4.035.024,4.4L4.2,9.412l-3.169,1.4,12.127.093Z" transform="translate(27.165 0.752)"/><path class="i" d="M23.753.1,9.01,0A6.1,6.1,0,0,0,7.421.394a6.869,6.869,0,0,0-1.391.752A9.008,9.008,0,0,0,4.817,2.167a12.754,12.754,0,0,0-1.054,1.2L.076,7.845l10.833,4.161,6.956-8.5a7.421,7.421,0,0,1,.874-1.033,7.773,7.773,0,0,1,1.237-.99A8.669,8.669,0,0,1,21.629.652,10.684,10.684,0,0,1,23.753.1Z" transform="translate(8.962)"/><path class="i" d="M6.57,14.747l.41-3.07,6.907-.382a4.422,4.422,0,0,0,2-.5,3.5,3.5,0,0,0,1.224-1.11A4.009,4.009,0,0,0,17.7,8.332,3.794,3.794,0,0,0,17.788,7.1a3.512,3.512,0,0,0-.322-1.077A7.517,7.517,0,0,0,16.8,4.89c-.266-.382-.57-.766-.894-1.146s-.667-.756-1.011-1.122l-8.55.055L6.069,0,.041,7.544Z" transform="translate(27.277 21.052)"/><path class="i" d="M9.524,18.707l7.2-9.327a2.341,2.341,0,0,0,.223-1.2,3.53,3.53,0,0,0-.351-1.247A7.047,7.047,0,0,0,15.8,5.674a13.691,13.691,0,0,0-1.1-1.246L10.566,0,.082,4.591l7.742,8.578a8.293,8.293,0,0,1,.953,1.088,5.9,5.9,0,0,1,.725,1.3,4.4,4.4,0,0,1,.311,1.492A4.32,4.32,0,0,1,9.524,18.707Z" transform="translate(36.691 11.121)"/></g><g transform="translate(1051.9 589.028)"><path class="i" d="M.6.068l3.272,1.8L.629,6.038a1.883,1.883,0,0,0-.5,1.427,2.439,2.439,0,0,0,.615,1.3A5.69,5.69,0,0,0,1.986,9.831a7.741,7.741,0,0,0,1.382.713,8.192,8.192,0,0,0,1.429.39,16.566,16.566,0,0,0,1.683.219c.592.049,1.207.077,1.83.092s1.252.015,1.87.01L14.686,6.18l3.335,1.263L12.315,0,.6.068Z" transform="translate(0 11.125)"/><path class="i" d="M.315,0,7.349,9.455a4.55,4.55,0,0,0,1.313.817,8.483,8.483,0,0,0,1.7.5,15.547,15.547,0,0,0,1.964.239c.687.043,1.4.054,2.116.041h7.722l0-8.991L7.692,1.989A15.8,15.8,0,0,1,5.9,1.963a13.046,13.046,0,0,1-1.916-.279A10.194,10.194,0,0,1,2.078,1.06,8.145,8.145,0,0,1,.315,0Z" transform="translate(0.483 21.448)"/><path class="i" d="M18.537,3.855l-3.815,1.12L10.957,1.157A3.383,3.383,0,0,0,9.406.225,6.092,6.092,0,0,0,7.5,0,9.709,9.709,0,0,0,5.608.254,8.955,8.955,0,0,0,4.086.742,6.318,6.318,0,0,0,2.94,1.4a9.549,9.549,0,0,0-1.055.883c-.337.323-.661.67-.97,1.027S.308,4.035.024,4.4L4.2,9.412l-3.169,1.4,12.127.093Z" transform="translate(27.165 0.752)"/><path class="i" d="M23.753.1,9.01,0A6.1,6.1,0,0,0,7.421.394a6.869,6.869,0,0,0-1.391.752A9.008,9.008,0,0,0,4.817,2.167a12.754,12.754,0,0,0-1.054,1.2L.076,7.845l10.833,4.161,6.956-8.5a7.42,7.42,0,0,1,.874-1.033,7.773,7.773,0,0,1,1.237-.99A8.669,8.669,0,0,1,21.629.652,10.684,10.684,0,0,1,23.753.1Z" transform="translate(8.962)"/><path class="i" d="M6.57,14.747l.41-3.07,6.907-.382a4.422,4.422,0,0,0,2-.5,3.5,3.5,0,0,0,1.224-1.11A4.009,4.009,0,0,0,17.7,8.332,3.794,3.794,0,0,0,17.788,7.1a3.511,3.511,0,0,0-.322-1.077A7.517,7.517,0,0,0,16.8,4.89c-.266-.382-.57-.766-.894-1.146s-.667-.756-1.011-1.122l-8.55.055L6.069,0,.041,7.544Z" transform="translate(27.277 21.052)"/><path class="i" d="M9.524,18.707l7.2-9.327a2.341,2.341,0,0,0,.223-1.2,3.53,3.53,0,0,0-.351-1.247A7.047,7.047,0,0,0,15.8,5.674a13.691,13.691,0,0,0-1.1-1.246L10.566,0,.082,4.591l7.742,8.578a8.293,8.293,0,0,1,.953,1.088,5.9,5.9,0,0,1,.725,1.3,4.4,4.4,0,0,1,.311,1.492A4.32,4.32,0,0,1,9.524,18.707Z" transform="translate(36.691 11.121)"/></g></g></svg>