<svg xmlns="http://www.w3.org/2000/svg" xmlns:xlink="http://www.w3.org/1999/xlink" width="174.638" height="178.818" viewBox="0 0 174.638 178.818"><defs><style>.a{fill:#103f80;}.b{fill:#080e64;opacity:0.918;}.c{fill:url(#c);}.d{fill:#24b0e5;}.e{fill:rgba(9,242,233,0.51);stroke:rgba(255,255,255,0.62);}.f{fill:url(#d);}.g{stroke:#e3f1ff;stroke-width:3px;fill:url(#e);}.h,.i{fill:#fff;}.h{opacity:0.502;}.j{filter:url(#a);}</style><filter id="a" x="0" y="70.374" width="174.638" height="108.444" filterUnits="userSpaceOnUse"><feOffset dy="9" input="SourceAlpha"/><feGaussianBlur stdDeviation="3" result="b"/><feFlood flood-opacity="0.82"/><feComposite operator="in" in2="b"/><feComposite in="SourceGraphic"/></filter><linearGradient id="c" x1="0.121" y1="0.397" x2="0.5" y2="1" gradientUnits="objectBoundingBox"><stop offset="0" stop-color="#458fea"/><stop offset="1" stop-color="#0f71d3"/></linearGradient><linearGradient id="d" y1="0.5" x2="1" y2="0.5" gradientUnits="objectBoundingBox"><stop offset="0" stop-color="#1f599c"/><stop offset="1" stop-color="#0029b0"/></linearGradient><linearGradient id="e" y1="0.5" x2="1" y2="0.5" gradientUnits="objectBoundingBox"><stop offset="0" stop-color="#87d9ed"/><stop offset="1" stop-color="#2e77eb"/></linearGradient></defs><g transform="translate(-801.152 -156.039)"><g transform="translate(810.151 157.542)"><g transform="translate(0 0)"><g class="j" transform="matrix(1, 0, 0, 1, -9, -1.5)"><path class="a" d="M4243.4,3855.529c-.183,2.083-1.789,4.238-4.747,5.946l-62.86,36.293c-5.766,3.325-14.479,3.69-19.47.808l-66.184-38.211c-2.12-1.227-3.225-2.84-3.356-4.54v-.55a1.038,1.038,0,0,1,.009-.211c.185-2.082,1.788-4.24,4.748-5.941l18.523-10.693,4.138-2.389,40.2-23.211c5.767-3.33,14.479-3.69,19.466-.808l42.229,24.377,4.414,2.547,19.547,11.284C4242.483,3851.634,4243.577,3853.553,4243.4,3855.529Z" transform="translate(-4077.78 -3739.7)"/></g><path class="b" d="M4192.106,3840.644c-.122,1.4-1.2,2.851-3.193,4l-42.273,24.408c-3.877,2.236-9.738,2.482-13.095.543l-44.51-25.7a4,4,0,0,1-2.257-3.054v-.37a.743.743,0,0,1,.006-.142c.125-1.4,1.2-2.851,3.194-3.995l12.457-7.192,2.783-1.606,27.034-15.61c3.878-2.239,9.737-2.482,13.091-.543l28.4,16.4,2.967,1.712,13.146,7.589C4191.492,3838.025,4192.229,3839.315,4192.106,3840.644Z" transform="translate(-4061.129 -3726.395)"/><path class="c" d="M4230.222,3726.081a4.688,4.688,0,0,0,0-.556v-14.773H4086.778v15.434c.006,1.672,1.011,3.265,3.075,4.455l60.618,35c4.569,2.639,12.553,2.308,17.83-.738l57.576-33.241c2.669-1.541,4.131-3.481,4.335-5.364h.01Z" transform="translate(-4080.189 -3638.713)"/><path class="d" d="M4230.221,3851.7c-.167,1.909-1.638,3.882-4.347,5.447L4168.3,3890.39c-5.28,3.046-13.261,3.381-17.832.741l-60.616-35a5.447,5.447,0,0,1-3.074-4.159v-.5a.965.965,0,0,1,.009-.193c.169-1.906,1.637-3.883,4.348-5.441l16.964-9.793,3.79-2.187,36.817-21.258c5.281-3.049,13.261-3.379,17.83-.74l38.676,22.327,4.042,2.333,17.9,10.335C4229.384,3848.138,4230.386,3849.9,4230.221,3851.7Z" transform="translate(-4080.896 -3779.015)"/><path class="e" d="M4230.222,3726.081a4.688,4.688,0,0,0,0-.556v-14.773H4086.778v15.434c.006,1.672,1.011,3.265,3.075,4.455l60.618,35c4.569,2.639,12.553,2.308,17.83-.738l57.576-33.241c2.669-1.541,4.131-3.481,4.335-5.364h.01Z" transform="translate(-4080.19 -3653.522)"/><path class="f" d="M4230.222,3726.081a4.688,4.688,0,0,0,0-.556v-14.773H4086.778v15.434c.006,1.672,1.011,3.265,3.075,4.455l60.618,35c4.569,2.639,12.553,2.308,17.83-.738l57.576-33.241c2.669-1.541,4.131-3.481,4.335-5.364h.01Z" transform="translate(-4080.189 -3669.549)"/><path class="g" d="M4230.221,3698.882c-.167,1.908-1.638,3.882-4.347,5.445l-57.573,33.24c-5.28,3.045-13.261,3.381-17.832.741l-60.616-35a5.444,5.444,0,0,1-3.074-4.159v-.5a.956.956,0,0,1,.009-.192c.169-1.91,1.637-3.884,4.348-5.442l16.964-9.795,3.79-2.187,36.817-21.258c5.281-3.05,13.261-3.379,17.83-.742l38.676,22.328,4.042,2.333,17.9,10.336C4229.384,3695.314,4230.386,3697.072,4230.221,3698.882Z" transform="translate(-4080.188 -3657.254)"/></g></g><g transform="translate(850.344 174.913)"><path class="h" d="M0,3.957l7.928-1.69a5.131,5.131,0,0,1,1.1-.105,6.836,6.836,0,0,1,1.179.114,7.343,7.343,0,0,1,1.171.315,6.369,6.369,0,0,1,1.073.5L48.424,24.349a4.923,4.923,0,0,1,.9.667,2.969,2.969,0,0,1,.57.725,1.66,1.66,0,0,1,.213.728,1.214,1.214,0,0,1-.175.676l-2.957,4.868,0,0,0,0h0Z" transform="translate(26.272)"/><path class="i" d="M2.88,16.193a3.435,3.435,0,0,1-.925-.807,1.768,1.768,0,0,1-.376-.865,1.274,1.274,0,0,1,.183-.821,1.952,1.952,0,0,1,.751-.675L26.272,0,73.243,28.058,50.09,42.479a3.5,3.5,0,0,1-1.2.443A5.646,5.646,0,0,1,47.453,43a6.771,6.771,0,0,1-1.508-.283,6,6,0,0,1-1.394-.626ZM12.645,13.1a1.177,1.177,0,0,0-.458.421.788.788,0,0,0-.1.512,1.128,1.128,0,0,0,.244.538,2.184,2.184,0,0,0,.581.5l10.247,6.308a3.6,3.6,0,0,0,.835.37,4.221,4.221,0,0,0,.914.17,3.619,3.619,0,0,0,.882-.038,2.273,2.273,0,0,0,.742-.255,1.155,1.155,0,0,0,.451-.433.806.806,0,0,0,.09-.523,1.186,1.186,0,0,0-.258-.547,2.269,2.269,0,0,0-.594-.506L15.991,13.356a3.57,3.57,0,0,0-.825-.364,4.217,4.217,0,0,0-.9-.169,3.659,3.659,0,0,0-.876.035A2.331,2.331,0,0,0,12.645,13.1ZM45.194,24.534a.661.661,0,0,0-.26.26.482.482,0,0,0-.044.314.743.743,0,0,0,.164.329,1.421,1.421,0,0,0,.363.305l6.871,4.18-2.336-.171a2.062,2.062,0,0,0-.541.026,1.269,1.269,0,0,0-.417.152.673.673,0,0,0-.253.254.5.5,0,0,0-.048.331.667.667,0,0,0,.063.178.909.909,0,0,0,.114.169,1.272,1.272,0,0,0,.16.157,1.714,1.714,0,0,0,.2.142,2.106,2.106,0,0,0,.233.123,2.36,2.36,0,0,0,.258.1,2.5,2.5,0,0,0,.278.07,2.533,2.533,0,0,0,.292.039l6.258.455a1.614,1.614,0,0,0,.425-.022A.987.987,0,0,0,57.3,31.8a.52.52,0,0,0,.2-.2.386.386,0,0,0,.034-.259l-.775-3.784a.757.757,0,0,0-.177-.342,1.463,1.463,0,0,0-.357-.294,2.236,2.236,0,0,0-.487-.216,2.539,2.539,0,0,0-.567-.108,2.051,2.051,0,0,0-.537.025,1.248,1.248,0,0,0-.412.15.654.654,0,0,0-.248.25.486.486,0,0,0-.044.327l.322,1.609L47.2,24.682a2.227,2.227,0,0,0-.5-.222,2.51,2.51,0,0,0-.544-.1,2.1,2.1,0,0,0-.52.023A1.3,1.3,0,0,0,45.194,24.534ZM19.894,9.078a1.138,1.138,0,0,0-.448.414.767.767,0,0,0-.1.5,1.124,1.124,0,0,0,.248.53,2.2,2.2,0,0,0,.581.493l15.7,9.561a3.65,3.65,0,0,0,.836.368,4.223,4.223,0,0,0,.91.169,3.569,3.569,0,0,0,.874-.038,2.205,2.205,0,0,0,.729-.253,1.109,1.109,0,0,0,.437-.43.794.794,0,0,0,.077-.519,1.21,1.21,0,0,0-.268-.543,2.328,2.328,0,0,0-.6-.5L23.2,9.33a3.594,3.594,0,0,0-.82-.359,4.22,4.22,0,0,0-.895-.167,3.628,3.628,0,0,0-.865.033A2.281,2.281,0,0,0,19.894,9.078ZM26.272,0,73.243,28.058Z" transform="translate(0 3.957)"/></g></g></svg>