<svg xmlns="http://www.w3.org/2000/svg" xmlns:xlink="http://www.w3.org/1999/xlink" width="249" height="50" viewBox="0 0 249 50"><defs><style>.a{fill:#27e2da;}.b{fill:#fff;}.c{fill:none;}.d,.e{stroke:none;}.e{fill:rgba(84,133,226,0.1);}.f{filter:url(#a);}</style><filter id="a"><feOffset input="SourceAlpha"/><feGaussianBlur stdDeviation="3" result="b"/><feFlood flood-color="#1deeff" result="c"/><feComposite operator="out" in="SourceGraphic" in2="b"/><feComposite operator="in" in="c"/><feComposite operator="in" in2="SourceGraphic"/></filter></defs><g transform="translate(-217 -188)"><path class="a" d="M0,0,7,3.186V14.814L0,18Z" transform="translate(217 204)"/><path class="a" d="M0,0,7,3.186V14.814L0,18Z" transform="translate(466 222) rotate(180)"/><g data-type="innerShadowGroup"><g class="f" transform="matrix(1, 0, 0, 1, 217, 188)"><g class="b" transform="translate(1634 2606)"><path class="d" d="M-1389-2556h-241a4,4,0,0,1-4-4v-11l8-3.539v-12.92l-8-3.54v-11a4,4,0,0,1,4-4h241a4,4,0,0,1,4,4v11l-8,3.54v12.92l8,3.54v11A4,4,0,0,1-1389-2556Z"/><path class="d" d="M -1388.999755859375 -2557 C -1387.345703125 -2557 -1386.000122070312 -2558.345703125 -1386.000122070312 -2559.999755859375 L -1386.000122070312 -2570.34912109375 L -1394.000244140625 -2573.888916015625 L -1394.000244140625 -2588.111572265625 L -1386.000122070312 -2591.6513671875 L -1386.000122070312 -2602 C -1386.000122070312 -2603.654052734375 -1387.345703125 -2604.99951171875 -1388.999755859375 -2604.99951171875 L -1630 -2604.99951171875 C -1631.654418945312 -2604.99951171875 -1633.00048828125 -2603.654052734375 -1633.00048828125 -2602 L -1632.999877929688 -2591.651123046875 L -1625.000366210938 -2588.111572265625 L -1625.000366210938 -2573.888916015625 L -1633.00048828125 -2570.35009765625 L -1633.00048828125 -2559.999755859375 C -1633.00048828125 -2558.345703125 -1631.654418945312 -2557 -1630 -2557 L -1388.999755859375 -2557 M -1388.999755859375 -2556 L -1630 -2556 C -1632.205932617188 -2556 -1634.00048828125 -2557.794189453125 -1634.00048828125 -2559.999755859375 L -1634.00048828125 -2571.001220703125 L -1626.000366210938 -2574.5400390625 L -1626.000366210938 -2587.46044921875 L -1633.999877929688 -2591 L -1634.00048828125 -2602 C -1634.00048828125 -2604.205322265625 -1632.205932617188 -2605.99951171875 -1630 -2605.99951171875 L -1388.999755859375 -2605.99951171875 C -1386.794311523438 -2605.99951171875 -1385.000122070312 -2604.205322265625 -1385.000122070312 -2602 L -1385.000122070312 -2591.000244140625 L -1393.000244140625 -2587.46044921875 L -1393.000244140625 -2574.5400390625 L -1385.000122070312 -2571.000244140625 L -1385.000122070312 -2559.999755859375 C -1385.000122070312 -2557.794189453125 -1386.794311523438 -2556 -1388.999755859375 -2556 Z"/></g></g><g class="c" transform="translate(1851 2794)"><path class="d" d="M-1389-2556h-241a4,4,0,0,1-4-4v-11l8-3.539v-12.92l-8-3.54v-11a4,4,0,0,1,4-4h241a4,4,0,0,1,4,4v11l-8,3.54v12.92l8,3.54v11A4,4,0,0,1-1389-2556Z"/><path class="e" d="M -1388.999755859375 -2557 C -1387.345703125 -2557 -1386.000122070312 -2558.345703125 -1386.000122070312 -2559.999755859375 L -1386.000122070312 -2570.34912109375 L -1394.000244140625 -2573.888916015625 L -1394.000244140625 -2588.111572265625 L -1386.000122070312 -2591.6513671875 L -1386.000122070312 -2602 C -1386.000122070312 -2603.654052734375 -1387.345703125 -2604.99951171875 -1388.999755859375 -2604.99951171875 L -1630 -2604.99951171875 C -1631.654418945312 -2604.99951171875 -1633.00048828125 -2603.654052734375 -1633.00048828125 -2602 L -1632.999877929688 -2591.651123046875 L -1625.000366210938 -2588.111572265625 L -1625.000366210938 -2573.888916015625 L -1633.00048828125 -2570.35009765625 L -1633.00048828125 -2559.999755859375 C -1633.00048828125 -2558.345703125 -1631.654418945312 -2557 -1630 -2557 L -1388.999755859375 -2557 M -1388.999755859375 -2556 L -1630 -2556 C -1632.205932617188 -2556 -1634.00048828125 -2557.794189453125 -1634.00048828125 -2559.999755859375 L -1634.00048828125 -2571.001220703125 L -1626.000366210938 -2574.5400390625 L -1626.000366210938 -2587.46044921875 L -1633.999877929688 -2591 L -1634.00048828125 -2602 C -1634.00048828125 -2604.205322265625 -1632.205932617188 -2605.99951171875 -1630 -2605.99951171875 L -1388.999755859375 -2605.99951171875 C -1386.794311523438 -2605.99951171875 -1385.000122070312 -2604.205322265625 -1385.000122070312 -2602 L -1385.000122070312 -2591.000244140625 L -1393.000244140625 -2587.46044921875 L -1393.000244140625 -2574.5400390625 L -1385.000122070312 -2571.000244140625 L -1385.000122070312 -2559.999755859375 C -1385.000122070312 -2557.794189453125 -1386.794311523438 -2556 -1388.999755859375 -2556 Z"/></g></g></g></svg>