<svg xmlns="http://www.w3.org/2000/svg" xmlns:xlink="http://www.w3.org/1999/xlink" width="483.956" height="31.724" viewBox="0 0 483.956 31.724"><defs><style>.a{fill:url(#a);}</style><linearGradient id="a" x1="0.5" x2="0.5" y2="2.065" gradientUnits="objectBoundingBox"><stop offset="0" stop-color="#fff"/><stop offset="1" stop-color="#1c57c6"/></linearGradient></defs><path class="a" d="M68.836,38.632l.748-5.412H51.192l-.748,5.412-1.8.836H43.624l1.408-10.032H76.8L75.392,39.468H70.376Zm-9.592,2.684L52.556,44.4H40.808l14.784-6.82.44-3.124h8.36l-.44,3.124,12.8,6.82h-11.7Zm4.84-26.928H78.912l-.572,4.18-1.628,2.508H70.024l1.8-2.948H62.192l-.66,1.276H54.8l2.816-5.456L56.6,12.716h8.36Zm1.8,9.548-3.344,3.828H54.492l6.82-7.92h8.1l-1.8,2.068h4.928l4.532,5.852H68.88ZM50.532,27.764H43.624L46.968,19.8H53.92Zm3.564-9.2H46.968L45.6,13.552h7.084ZM112.088,25.7h5.94l-.572,4.18H92.244l-4,14.52H80.276l5.148-18.7h5.06l-.22-4.62h6.688l.22,4.62H105.4l1.584-4.62h6.688ZM98.58,15.224l.132-.836L97.3,12.716h10.032l-.352,2.508H120.36l-.616,4.18H84.632l.616-4.18Zm53.24-2.508,8.228,12.98h-5.9l-.176,1.232h-8.36l-.528,3.74h9.2l-.572,4.18h-9.2l-.66,4.62h13.376l-.572,4.18H121.548l.572-4.18H135.5l.66-4.62h-9.2l.572-4.18h9.2l.528-3.74H128.9l.176-1.232h-5.808L134,13.948l-1.012-1.232ZM134.308,22.748H149.84l-3.7-5.852h-6.468ZM173.116,20.2,174,18.48h-8.4l.484-3.344h9.636l.4-.792-1.1-1.584H185.26l-1.232,2.376h17.16L200.7,18.48H182.356l-.88,1.716h18.172l-.484,3.344H179.8l-.88,1.716h20.9l-.484,3.388h-5.192l-.264,2.42h4.972l-.484,3.608h-4.928l-.836,6.776a3.177,3.177,0,0,1-1.166,2.09,3.468,3.468,0,0,1-2.266.814h-8.228l3.74-4.092.66-5.588H174.172l-4.444,8.8h-8.36l7.48-14.828h-4.664l.484-3.388h5.9l.88-1.716h-5.72l.484-3.344Zm8.8,22.22h-6.732l-1.672-5.9h6.732Zm-5.94-11.352h9.812l.264-2.42h-8.844Zm54.956-5.808-.616-1.672H214.432l-1.056,1.672H203.74l6.776-10.6-.968-1.1H236.3l4.224,11.7ZM220.24,26.928l-2.2,15.488H202.992l2.2-15.488Zm8.14,4.18L226.532,44.4h-6.248l2.464-17.468h16.764l-1.5,10.384a3.5,3.5,0,0,1-3.432,2.992H228.82l2.948-3.124.836-6.072Zm-15.664,7.524,1.144-7.92h-3.344l-1.144,7.92ZM217.072,19.4H228.82l-.616-1.672H218.172Zm63.184-5.852-.572,4.18h-1.672l-3.256,22.924a3.446,3.446,0,0,1-1.144,2.112,3.234,3.234,0,0,1-2.244.88h-8.712l3.916-4.18,3.08-21.736h-25.08l.572-4.18ZM266.792,20.24,264.328,37.8H244.264l2.2-15.884-1.408-1.672Zm-8.14,4.18h-5.016l-1.276,9.2h5.016Zm42.46,8.36H298.12L300.8,13.552h20.768L318.888,32.78H312.6l2.156-15.488h-8.008l-.4,2.9Zm-4.972,5.544-2.552-2.6L292.4,44.352h-6.776l1.408-10.3h-3.168l7.744-11.484H286.02l.616-4.136h11.528l-.792,5.412-2.86,4.18,2.684,2.728ZM313.916,19.4,303.488,44.4h-6.2L307.756,19.4ZM306.832,44.4l2.6-10.472h6.248L314.268,39.6h3.564l2.068-1.8-.968,6.6Zm-10.12-26.708h-5.676l-.7-3.828L289.5,12.8h6.336Zm63.844,5.9-9.68,3.388-1.628,11.66h8.36L359.5,36.96l-.924,6.688H340.184L342.076,30.1l-5.28,1.848.836-5.852,5.236-1.848,1.408-9.856-1.408-1.672H352.9l-1.188,8.448,9.68-3.432Zm-23.408-5.852L333.364,44.4H325l3.608-25.476-3.432.484.7-4.972,11.968-1.716ZM366.1,39.6l1.364-9.68H400.64l-1.364,9.68h1.76l-.528,3.96h-36.7l.528-3.96Zm29.172-26.8-.968,3.212h9.284l-.792,5.456H392.72l-1.848,6.248h-7.128L387.792,12.8Zm-18.128,1.188-1.056-1.32h8.272L382.116,28.6h-7.04Zm-7.48,1.672-1.056-1.276h7.26L373.976,27.72h-6.028Zm30.624,7.568.88,4.488h-7l-.88-4.488ZM373.58,39.6H375.6l.792-5.456h-2.024Zm8.316,0h2.024l.792-5.456h-2.024ZM391,34.144l-.792,5.456h2.024l.792-5.456Zm18.92-15.752.616-4.312-1.1-1.276h8.668l-.792,5.588h1.54l-.572,3.916h-1.54l-.66,4.752,1.188-.352-.66,4.576-1.144.352L414.1,41.448a3.177,3.177,0,0,1-1.166,2.09,3.409,3.409,0,0,1-2.222.814H403.9l2.948-3.96.88-6.292-2.464.748.66-4.62,2.464-.748,1.012-7.172h-2.332l.572-3.916Zm15.18,21.12.836-6.072h-6.688l.572-3.96H441.56l-.572,3.96h-6.82l-.836,6.072h7.92L440.68,43.6H417.1l.572-4.092ZM437.028,19.1h-9.812l-.44,3.08H419.56l.924-6.336h7.788l.22-1.408L426.82,12.76h10.208l-.44,3.08h7.92l-.924,6.336h-7Zm-18.04,9.548,3.564-5.544h7.568l-3.564,5.544Zm16.148,0L433.068,23.1h7.568l2.068,5.544Zm49.016-11.792-19.668.748-3.344,2.244h20.944l-.66,4.708h-17.38l-5.72,3.652h14.652l-.176-1.716h8.36l.7,6.732H473.5l-.088-.836h-4.8l-1.276,9.108a3.465,3.465,0,0,1-3.432,2.9H455.2l3.916-4.092,1.144-7.92h-11.7l.572-4.18,6.16-3.7h-5.632l.66-4.576,3.3-1.936-4.752.176.66-4.62,35.244-.88Zm-2.816,25.96h-7.524l-2.992-8.36h7.524Zm-29.26,0h-7.524l5.368-8.36h7.48Zm69.96-20.064,1.452,7.524h-5.852l-.176-.792-16.544.792.572-4.18,4.268-6.688h-4.18l.616-4.18h7.04l.132-.836-1.408-1.672h10.032l-.4,2.508h7.172l-.616,4.18H514.116l-4,6.248,6.556-.308-.484-2.6Zm-33.572.836,5.676-8.932-.924-1.1h9.2l-6.424,10.032H501L494.58,33.616H499.6l-.572,4.18h-12.54l.572-4.18,3.74-5.852h-2.9Zm29.876,7.524-1.056,7.524h3.344l1.892-1.672-.924,6.688h-11.7l1.76-12.54Zm-8.36,0-4.268,12.54h-6.688l4.268-12.54Zm-11.792,12.54-12.672.748.616-4.092,12.628-.836Z" transform="translate(-40.808 -12.672)"/></svg>