<svg xmlns="http://www.w3.org/2000/svg" xmlns:xlink="http://www.w3.org/1999/xlink" width="113.085" height="142" viewBox="0 0 113.085 142"><defs><style>.a,.c{fill:#fff;}.b,.d{fill:none;}.c,.d{opacity:0.4;}.e{fill:url(#g);}.f{fill:url(#h);}.g,.h,.i{stroke:none;}.h{fill:rgba(46,108,195,0.7);}.i{fill:#2e6cc3;}.j{filter:url(#d);}.k{filter:url(#a);}</style><filter id="a"><feOffset input="SourceAlpha"/><feGaussianBlur stdDeviation="10" result="b"/><feFlood flood-color="#58b9e5" result="c"/><feComposite operator="out" in="SourceGraphic" in2="b"/><feComposite operator="in" in="c"/><feComposite operator="in" in2="SourceGraphic"/></filter><filter id="d"><feOffset input="SourceAlpha"/><feGaussianBlur stdDeviation="5" result="e"/><feFlood flood-color="#2ad5ce" result="f"/><feComposite operator="out" in="SourceGraphic" in2="e"/><feComposite operator="in" in="f"/><feComposite operator="in" in2="SourceGraphic"/></filter><linearGradient id="g" x1="0.5" x2="0.514" y2="1" gradientUnits="objectBoundingBox"><stop offset="0" stop-color="#105281" stop-opacity="0"/><stop offset="0.565" stop-color="#105281" stop-opacity="0.6"/><stop offset="1" stop-color="#105281" stop-opacity="0"/></linearGradient><radialGradient id="h" cx="0.5" cy="0.5" r="0.5" gradientUnits="objectBoundingBox"><stop offset="0" stop-opacity="0.702"/><stop offset="1" stop-opacity="0"/></radialGradient></defs><g transform="translate(-48 -586)"><g data-type="innerShadowGroup"><g class="k" transform="matrix(1, 0, 0, 1, 48, 586)"><g class="a" transform="translate(0 111)"><path class="g" d="M56.543,0c31.228,0,56.543,6.94,56.543,15.5S87.77,31,56.543,31,0,24.06,0,15.5,25.315,0,56.543,0Z"/><path class="g" d="M 56.54266357421875 1 C 48.94778442382812 1 41.5816650390625 1.407585144042969 34.64888000488281 2.211416244506836 C 27.966064453125 2.986261367797852 21.96935272216797 4.094139099121094 16.82534027099609 5.504261016845703 C 11.73172760009766 6.900569915771484 7.748832702636719 8.516061782836914 4.987281799316406 10.30586242675781 C 3.64373779296875 11.1766300201416 2.621879577636719 12.07446098327637 1.950111389160156 12.97439956665039 C 1.319664001464844 13.81895446777344 1 14.66869163513184 1 15.5 C 1 16.33130645751953 1.319664001464844 17.18104553222656 1.950111389160156 18.02560043334961 C 2.621879577636719 18.925537109375 3.64373779296875 19.82336807250977 4.987281799316406 20.69413757324219 C 7.748832702636719 22.48393821716309 11.73172760009766 24.09943008422852 16.82534027099609 25.4957389831543 C 21.96935272216797 26.90586090087891 27.966064453125 28.01373863220215 34.64888000488281 28.7885856628418 C 41.5816650390625 29.59241485595703 48.94778442382812 30 56.54266357421875 30 C 64.13754272460938 30 71.503662109375 29.59241485595703 78.43644714355469 28.7885856628418 C 85.1192626953125 28.01373863220215 91.115966796875 26.90586090087891 96.25998687744141 25.4957389831543 C 101.3535995483398 24.09943008422852 105.3364944458008 22.48393821716309 108.0980453491211 20.69413757324219 C 109.4415893554688 19.82336807250977 110.4634475708008 18.925537109375 111.1352157592773 18.02560043334961 C 111.7656631469727 17.18104553222656 112.0853271484375 16.33130645751953 112.0853271484375 15.5 C 112.0853271484375 14.66869163513184 111.7656631469727 13.81895446777344 111.1352157592773 12.97439956665039 C 110.4634475708008 12.07446098327637 109.4415893554688 11.1766300201416 108.0980453491211 10.30586242675781 C 105.3364944458008 8.516061782836914 101.3535995483398 6.900569915771484 96.25998687744141 5.504261016845703 C 91.115966796875 4.094139099121094 85.1192626953125 2.986261367797852 78.43644714355469 2.211416244506836 C 71.503662109375 1.407585144042969 64.13754272460938 1 56.54266357421875 1 M 56.54266357421875 0 C 87.77030944824219 0 113.0853271484375 6.939584732055664 113.0853271484375 15.5 C 113.0853271484375 24.06041526794434 87.77030944824219 31 56.54266357421875 31 C 25.31501770019531 31 0 24.06041526794434 0 15.5 C 0 6.939584732055664 25.31501770019531 0 56.54266357421875 0 Z"/></g></g><g class="b" transform="translate(48 697)"><path class="g" d="M56.543,0c31.228,0,56.543,6.94,56.543,15.5S87.77,31,56.543,31,0,24.06,0,15.5,25.315,0,56.543,0Z"/><path class="h" d="M 56.54266357421875 1 C 48.94778442382812 1 41.5816650390625 1.407585144042969 34.64888000488281 2.211416244506836 C 27.966064453125 2.986261367797852 21.96935272216797 4.094139099121094 16.82534027099609 5.504261016845703 C 11.73172760009766 6.900569915771484 7.748832702636719 8.516061782836914 4.987281799316406 10.30586242675781 C 3.64373779296875 11.1766300201416 2.621879577636719 12.07446098327637 1.950111389160156 12.97439956665039 C 1.319664001464844 13.81895446777344 1 14.66869163513184 1 15.5 C 1 16.33130645751953 1.319664001464844 17.18104553222656 1.950111389160156 18.02560043334961 C 2.621879577636719 18.925537109375 3.64373779296875 19.82336807250977 4.987281799316406 20.69413757324219 C 7.748832702636719 22.48393821716309 11.73172760009766 24.09943008422852 16.82534027099609 25.4957389831543 C 21.96935272216797 26.90586090087891 27.966064453125 28.01373863220215 34.64888000488281 28.7885856628418 C 41.5816650390625 29.59241485595703 48.94778442382812 30 56.54266357421875 30 C 64.13754272460938 30 71.503662109375 29.59241485595703 78.43644714355469 28.7885856628418 C 85.1192626953125 28.01373863220215 91.115966796875 26.90586090087891 96.25998687744141 25.4957389831543 C 101.3535995483398 24.09943008422852 105.3364944458008 22.48393821716309 108.0980453491211 20.69413757324219 C 109.4415893554688 19.82336807250977 110.4634475708008 18.925537109375 111.1352157592773 18.02560043334961 C 111.7656631469727 17.18104553222656 112.0853271484375 16.33130645751953 112.0853271484375 15.5 C 112.0853271484375 14.66869163513184 111.7656631469727 13.81895446777344 111.1352157592773 12.97439956665039 C 110.4634475708008 12.07446098327637 109.4415893554688 11.1766300201416 108.0980453491211 10.30586242675781 C 105.3364944458008 8.516061782836914 101.3535995483398 6.900569915771484 96.25998687744141 5.504261016845703 C 91.115966796875 4.094139099121094 85.1192626953125 2.986261367797852 78.43644714355469 2.211416244506836 C 71.503662109375 1.407585144042969 64.13754272460938 1 56.54266357421875 1 M 56.54266357421875 0 C 87.77030944824219 0 113.0853271484375 6.939584732055664 113.0853271484375 15.5 C 113.0853271484375 24.06041526794434 87.77030944824219 31 56.54266357421875 31 C 25.31501770019531 31 0 24.06041526794434 0 15.5 C 0 6.939584732055664 25.31501770019531 0 56.54266357421875 0 Z"/></g></g><g data-type="innerShadowGroup"><g class="j" transform="matrix(1, 0, 0, 1, 48, 586)"><g class="c" transform="translate(0 100.5)"><path class="g" d="M56.543,0c31.228,0,56.543,6.94,56.543,15.5S87.77,31,56.543,31,0,24.06,0,15.5,25.315,0,56.543,0Z"/><path class="g" d="M 56.54266357421875 1 C 48.94778442382812 1 41.5816650390625 1.407585144042969 34.64888000488281 2.211416244506836 C 27.966064453125 2.986261367797852 21.96935272216797 4.094139099121094 16.82534027099609 5.504261016845703 C 11.73172760009766 6.900569915771484 7.748832702636719 8.516061782836914 4.987281799316406 10.30586242675781 C 3.64373779296875 11.1766300201416 2.621879577636719 12.07446098327637 1.950111389160156 12.97439956665039 C 1.319664001464844 13.81895446777344 1 14.66869163513184 1 15.5 C 1 16.33130645751953 1.319664001464844 17.18104553222656 1.950111389160156 18.02560043334961 C 2.621879577636719 18.925537109375 3.64373779296875 19.82336807250977 4.987281799316406 20.69413757324219 C 7.748832702636719 22.48393821716309 11.73172760009766 24.09943008422852 16.82534027099609 25.4957389831543 C 21.96935272216797 26.90586090087891 27.966064453125 28.01373863220215 34.64888000488281 28.7885856628418 C 41.5816650390625 29.59241485595703 48.94778442382812 30 56.54266357421875 30 C 64.13754272460938 30 71.503662109375 29.59241485595703 78.43644714355469 28.7885856628418 C 85.1192626953125 28.01373863220215 91.115966796875 26.90586090087891 96.25998687744141 25.4957389831543 C 101.3535995483398 24.09943008422852 105.3364944458008 22.48393821716309 108.0980453491211 20.69413757324219 C 109.4415893554688 19.82336807250977 110.4634475708008 18.925537109375 111.1352157592773 18.02560043334961 C 111.7656631469727 17.18104553222656 112.0853271484375 16.33130645751953 112.0853271484375 15.5 C 112.0853271484375 14.66869163513184 111.7656631469727 13.81895446777344 111.1352157592773 12.97439956665039 C 110.4634475708008 12.07446098327637 109.4415893554688 11.1766300201416 108.0980453491211 10.30586242675781 C 105.3364944458008 8.516061782836914 101.3535995483398 6.900569915771484 96.25998687744141 5.504261016845703 C 91.115966796875 4.094139099121094 85.1192626953125 2.986261367797852 78.43644714355469 2.211416244506836 C 71.503662109375 1.407585144042969 64.13754272460938 1 56.54266357421875 1 M 56.54266357421875 0 C 87.77030944824219 0 113.0853271484375 6.939584732055664 113.0853271484375 15.5 C 113.0853271484375 24.06041526794434 87.77030944824219 31 56.54266357421875 31 C 25.31501770019531 31 0 24.06041526794434 0 15.5 C 0 6.939584732055664 25.31501770019531 0 56.54266357421875 0 Z"/></g></g><g class="d" transform="translate(48 686.5)"><path class="g" d="M56.543,0c31.228,0,56.543,6.94,56.543,15.5S87.77,31,56.543,31,0,24.06,0,15.5,25.315,0,56.543,0Z"/><path class="i" d="M 56.54266357421875 1 C 48.94778442382812 1 41.5816650390625 1.407585144042969 34.64888000488281 2.211416244506836 C 27.966064453125 2.986261367797852 21.96935272216797 4.094139099121094 16.82534027099609 5.504261016845703 C 11.73172760009766 6.900569915771484 7.748832702636719 8.516061782836914 4.987281799316406 10.30586242675781 C 3.64373779296875 11.1766300201416 2.621879577636719 12.07446098327637 1.950111389160156 12.97439956665039 C 1.319664001464844 13.81895446777344 1 14.66869163513184 1 15.5 C 1 16.33130645751953 1.319664001464844 17.18104553222656 1.950111389160156 18.02560043334961 C 2.621879577636719 18.925537109375 3.64373779296875 19.82336807250977 4.987281799316406 20.69413757324219 C 7.748832702636719 22.48393821716309 11.73172760009766 24.09943008422852 16.82534027099609 25.4957389831543 C 21.96935272216797 26.90586090087891 27.966064453125 28.01373863220215 34.64888000488281 28.7885856628418 C 41.5816650390625 29.59241485595703 48.94778442382812 30 56.54266357421875 30 C 64.13754272460938 30 71.503662109375 29.59241485595703 78.43644714355469 28.7885856628418 C 85.1192626953125 28.01373863220215 91.115966796875 26.90586090087891 96.25998687744141 25.4957389831543 C 101.3535995483398 24.09943008422852 105.3364944458008 22.48393821716309 108.0980453491211 20.69413757324219 C 109.4415893554688 19.82336807250977 110.4634475708008 18.925537109375 111.1352157592773 18.02560043334961 C 111.7656631469727 17.18104553222656 112.0853271484375 16.33130645751953 112.0853271484375 15.5 C 112.0853271484375 14.66869163513184 111.7656631469727 13.81895446777344 111.1352157592773 12.97439956665039 C 110.4634475708008 12.07446098327637 109.4415893554688 11.1766300201416 108.0980453491211 10.30586242675781 C 105.3364944458008 8.516061782836914 101.3535995483398 6.900569915771484 96.25998687744141 5.504261016845703 C 91.115966796875 4.094139099121094 85.1192626953125 2.986261367797852 78.43644714355469 2.211416244506836 C 71.503662109375 1.407585144042969 64.13754272460938 1 56.54266357421875 1 M 56.54266357421875 0 C 87.77030944824219 0 113.0853271484375 6.939584732055664 113.0853271484375 15.5 C 113.0853271484375 24.06041526794434 87.77030944824219 31 56.54266357421875 31 C 25.31501770019531 31 0 24.06041526794434 0 15.5 C 0 6.939584732055664 25.31501770019531 0 56.54266357421875 0 Z"/></g></g><rect class="e" width="113" height="116" transform="translate(48 586)"/><ellipse class="f" cx="50.5" cy="29" rx="50.5" ry="29" transform="translate(54 666)"/></g></svg>